<?xml version="1.0" encoding="UTF-8"?><svg id="b" xmlns="http://www.w3.org/2000/svg" xmlns:xlink="http://www.w3.org/1999/xlink" viewBox="0 0 661.39 729.45"><defs><linearGradient id="d" x1="6559" y1="4072.14" x2="6775.6" y2="3660.23" gradientTransform="translate(-6512.97 -3680.17)" gradientUnits="userSpaceOnUse"><stop offset="0" stop-color="#ffe711"/><stop offset=".14" stop-color="#ffd914"/><stop offset=".4" stop-color="#ffb71c"/><stop offset=".76" stop-color="#ff7f29"/><stop offset="1" stop-color="#f53"/></linearGradient><linearGradient id="e" x1="6635.12" y1="4176.65" x2="7025.98" y2="4176.65" gradientTransform="translate(-6512.97 -3680.17)" gradientUnits="userSpaceOnUse"><stop offset="0" stop-color="#ffe711"/><stop offset=".11" stop-color="#f5e610"/><stop offset=".3" stop-color="#dbe30d"/><stop offset=".55" stop-color="#b1df09"/><stop offset=".83" stop-color="#77d903"/><stop offset="1" stop-color="#52d600"/></linearGradient><linearGradient id="f" x1="7053.62" y1="4148.67" x2="6883.18" y2="3843.29" gradientTransform="translate(-6512.97 -3680.17)" gradientUnits="userSpaceOnUse"><stop offset="0" stop-color="#e11d48"/><stop offset="1" stop-color="#f53"/></linearGradient><linearGradient id="g" x1="7000.87" y1="4290.85" x2="6539.25" y2="4290.85" gradientTransform="translate(-6512.97 -3680.17)" gradientUnits="userSpaceOnUse"><stop offset="0" stop-color="#e11d48"/><stop offset=".08" stop-color="#cb2659"/><stop offset=".42" stop-color="#754e9f"/><stop offset=".69" stop-color="#366bd2"/><stop offset=".9" stop-color="#0e7df2"/><stop offset="1" stop-color="#0084ff"/></linearGradient><linearGradient id="h" x1="6840.56" y1="3816.69" x2="6616.85" y2="4114.96" gradientTransform="translate(-6512.97 -3680.17)" gradientUnits="userSpaceOnUse"><stop offset="0" stop-color="#0084ff"/><stop offset="1" stop-color="#0084ff"/></linearGradient><linearGradient id="i" x1="6957.36" y1="3795.86" x2="7202.37" y2="4158.05" gradientTransform="translate(-6512.97 -3680.17)" gradientUnits="userSpaceOnUse"><stop offset="0" stop-color="#0084ff"/><stop offset=".65" stop-color="#35b959"/><stop offset="1" stop-color="#52d600"/></linearGradient></defs><g id="c"><path d="m118.35,437.3v-195.17l94-54.27c45.68-79.12,82.4-142.73,85.8-148.62,18.05-31.26,57.59-41.91,87.76-24.49h0c-34.06-19.66-76.37-19.66-110.43,0h0L55.21,141.92C21.16,161.58,0,198.23,0,237.55v254.35c0,34.83,29,63.75,65.09,63.75l39.89-50.5,13.37-67.85Z" style="fill:url(#d);"/><path d="m65.09,555.65h359.6l75.03-43.32-43.32-75.03H118.35s-53.26,118.35-53.26,118.35Z" style="fill:url(#e);"/><path d="m606.18,587.53c30.17-17.42,40.71-56.99,22.67-88.25-9.47-16.4-179.8-311.43-179.8-311.43l-75.03-43.32-43.32,75.03,169.02,292.76,40.11,60.36,66.35,14.84Z" style="fill:url(#f);"/><path d="m499.72,512.34l-169.02,97.59-94-54.27c-91.36,0-164.81,0-171.61,0C29,555.65,0,526.73,0,491.9H0c0,39.33,21.16,75.97,55.21,95.63h0l220.27,127.17c34.06,19.66,76.37,19.66,110.43,0l220.27-127.17-106.46-75.2Z" style="fill:url(#g);"/><path d="m385.91,14.75c-30.16-17.42-69.71-6.76-87.75,24.5-9.47,16.4-179.8,311.43-179.8,311.43v86.63h86.64l169.02-292.76,29.59-64.58-17.7-65.21Z" style="fill:url(#h);"/><path d="m374.02,144.54l169.03,97.59v108.54c45.68,79.12,82.4,142.73,85.8,148.61,18.05,31.26,7.5,70.83-22.67,88.25h0c34.06-19.66,55.21-56.3,55.21-95.63h0v-254.35c0-39.32-21.16-75.97-55.21-95.63L385.91,14.75l-11.89,129.8Z" style="fill:url(#i);"/></g></svg>